<svg xmlns="http://www.w3.org/2000/svg" version="1.1" xmlns:xlink="http://www.w3.org/1999/xlink" xmlns:svgjs="http://svgjs.dev/svgjs" width="1000" height="1000" viewBox="0 0 1000 1000"><rect width="1000" height="1000" fill="#00c5ff"></rect><g transform="matrix(0.7,0,0,0.7,150.3169943616537,259.04526316535726)"><svg viewBox="0 0 358 247" data-background-color="#00c5ff" preserveAspectRatio="xMidYMid meet" height="689" width="1000" xmlns="http://www.w3.org/2000/svg" xmlns:xlink="http://www.w3.org/1999/xlink"><g id="tight-bounds" transform="matrix(1,0,0,1,-0.16211985807615292,-0.09999999617824074)"><svg viewBox="0 0 358.32423983160766 247.2" height="247.2" width="358.32423983160766"><g><svg viewBox="0 0 395.52 272.8605356030271" height="247.2" width="358.32423983160766"><g transform="matrix(1,0,0,1,0,204.6466977651892)"><svg viewBox="0 0 395.52 68.21383783783784" height="68.21383783783784" width="395.52"><g><svg viewBox="0 0 395.52 68.21383783783784" height="68.21383783783784" width="395.52"><g><svg viewBox="0 0 395.52 68.21383783783784" height="68.21383783783784" width="395.52"><g transform="matrix(1,0,0,1,0,0)"><svg width="395.52" viewBox="2.1500000953674316 -38.04999923706055 295.9800109863281 51.04999923706055" height="68.21383783783784" data-palette-color="#ffffff"><path d="M2.15-17.45Q2.15-22.55 4.45-26.63 6.75-30.7 10.73-33 14.7-35.3 19.55-35.3L19.55-35.3Q25.25-35.3 29.5-32.55 33.75-29.8 35.7-24.75L35.7-24.75 30.25-24.75Q28.8-27.9 26.08-29.6 23.35-31.3 19.55-31.3L19.55-31.3Q15.9-31.3 13-29.6 10.1-27.9 8.45-24.78 6.8-21.65 6.8-17.45L6.8-17.45Q6.8-13.3 8.45-10.18 10.1-7.05 13-5.35 15.9-3.65 19.55-3.65L19.55-3.65Q23.35-3.65 26.08-5.33 28.8-7 30.25-10.15L30.25-10.15 35.7-10.15Q33.75-5.15 29.5-2.43 25.25 0.3 19.55 0.3L19.55 0.3Q14.7 0.3 10.73-1.98 6.75-4.25 4.45-8.3 2.15-12.35 2.15-17.45L2.15-17.45ZM54.4 0.45Q50.55 0.45 47.42-1.3 44.3-3.05 42.52-6.28 40.75-9.5 40.75-13.75L40.75-13.75Q40.75-17.95 42.57-21.18 44.4-24.4 47.55-26.13 50.7-27.85 54.6-27.85L54.6-27.85Q58.5-27.85 61.65-26.13 64.8-24.4 66.62-21.2 68.45-18 68.45-13.75L68.45-13.75Q68.45-9.5 66.57-6.28 64.7-3.05 61.5-1.3 58.3 0.45 54.4 0.45L54.4 0.45ZM54.4-3.55Q56.85-3.55 59-4.7 61.15-5.85 62.47-8.15 63.8-10.45 63.8-13.75L63.8-13.75Q63.8-17.05 62.5-19.35 61.2-21.65 59.1-22.78 57-23.9 54.55-23.9L54.55-23.9Q52.05-23.9 49.97-22.78 47.9-21.65 46.65-19.35 45.4-17.05 45.4-13.75L45.4-13.75Q45.4-10.4 46.62-8.1 47.85-5.8 49.9-4.67 51.95-3.55 54.4-3.55L54.4-3.55ZM74.44-37L79-37 79 0 74.44 0 74.44-37ZM98.69 0.45Q94.84 0.45 91.72-1.3 88.59-3.05 86.82-6.28 85.04-9.5 85.04-13.75L85.04-13.75Q85.04-17.95 86.87-21.18 88.69-24.4 91.84-26.13 94.99-27.85 98.89-27.85L98.89-27.85Q102.79-27.85 105.94-26.13 109.09-24.4 110.92-21.2 112.74-18 112.74-13.75L112.74-13.75Q112.74-9.5 110.87-6.28 108.99-3.05 105.79-1.3 102.59 0.45 98.69 0.45L98.69 0.45ZM98.69-3.55Q101.14-3.55 103.29-4.7 105.44-5.85 106.77-8.15 108.09-10.45 108.09-13.75L108.09-13.75Q108.09-17.05 106.79-19.35 105.49-21.65 103.39-22.78 101.29-23.9 98.84-23.9L98.84-23.9Q96.34-23.9 94.27-22.78 92.19-21.65 90.94-19.35 89.69-17.05 89.69-13.75L89.69-13.75Q89.69-10.4 90.92-8.1 92.14-5.8 94.19-4.67 96.24-3.55 98.69-3.55L98.69-3.55ZM123.29-22.95Q124.49-25.3 126.72-26.6 128.94-27.9 132.14-27.9L132.14-27.9 132.14-23.2 130.94-23.2Q123.29-23.2 123.29-14.9L123.29-14.9 123.29 0 118.74 0 118.74-27.4 123.29-27.4 123.29-22.95ZM147.09 0.45Q143.94 0.45 141.44-0.63 138.94-1.7 137.49-3.63 136.04-5.55 135.89-8.05L135.89-8.05 140.59-8.05Q140.79-6 142.51-4.7 144.24-3.4 147.04-3.4L147.04-3.4Q149.64-3.4 151.14-4.55 152.64-5.7 152.64-7.45L152.64-7.45Q152.64-9.25 151.04-10.13 149.44-11 146.09-11.85L146.09-11.85Q143.04-12.65 141.11-13.48 139.19-14.3 137.81-15.93 136.44-17.55 136.44-20.2L136.44-20.2Q136.44-22.3 137.69-24.05 138.94-25.8 141.24-26.83 143.54-27.85 146.49-27.85L146.49-27.85Q151.04-27.85 153.84-25.55 156.64-23.25 156.84-19.25L156.84-19.25 152.29-19.25Q152.14-21.4 150.56-22.7 148.99-24 146.34-24L146.34-24Q143.89-24 142.44-22.95 140.99-21.9 140.99-20.2L140.99-20.2Q140.99-18.85 141.86-17.98 142.74-17.1 144.06-16.57 145.39-16.05 147.74-15.4L147.74-15.4Q150.69-14.6 152.54-13.83 154.39-13.05 155.71-11.5 157.04-9.95 157.09-7.45L157.09-7.45Q157.09-5.2 155.84-3.4 154.59-1.6 152.31-0.58 150.04 0.45 147.09 0.45L147.09 0.45ZM165.83-31.85Q164.53-31.85 163.63-32.75 162.73-33.65 162.73-34.95L162.73-34.95Q162.73-36.25 163.63-37.15 164.53-38.05 165.83-38.05L165.83-38.05Q167.08-38.05 167.96-37.15 168.83-36.25 168.83-34.95L168.83-34.95Q168.83-33.65 167.96-32.75 167.08-31.85 165.83-31.85L165.83-31.85ZM163.48-27.4L168.03-27.4 168.03 0 163.48 0 163.48-27.4ZM180.33-22.35Q181.68-24.7 184.36-26.28 187.03-27.85 190.58-27.85L190.58-27.85Q194.23-27.85 197.21-26.1 200.18-24.35 201.88-21.18 203.58-18 203.58-13.8L203.58-13.8Q203.58-9.65 201.88-6.4 200.18-3.15 197.21-1.35 194.23 0.45 190.58 0.45L190.58 0.45Q187.08 0.45 184.41-1.13 181.73-2.7 180.33-5.05L180.33-5.05 180.33 13 175.78 13 175.78-27.4 180.33-27.4 180.33-22.35ZM198.93-13.8Q198.93-16.9 197.68-19.2 196.43-21.5 194.31-22.7 192.18-23.9 189.63-23.9L189.63-23.9Q187.13-23.9 185.01-22.68 182.88-21.45 181.61-19.13 180.33-16.8 180.33-13.75L180.33-13.75Q180.33-10.65 181.61-8.33 182.88-6 185.01-4.78 187.13-3.55 189.63-3.55L189.63-3.55Q192.18-3.55 194.31-4.78 196.43-6 197.68-8.33 198.93-10.65 198.93-13.8L198.93-13.8ZM223.18-27.9Q226.28-27.9 228.78-26.58 231.28-25.25 232.71-22.6 234.13-19.95 234.13-16.15L234.13-16.15 234.13 0 229.63 0 229.63-15.5Q229.63-19.6 227.58-21.78 225.53-23.95 221.98-23.95L221.98-23.95Q218.38-23.95 216.26-21.7 214.13-19.45 214.13-15.15L214.13-15.15 214.13 0 209.58 0 209.58-37 214.13-37 214.13-23.5Q215.48-25.6 217.86-26.75 220.23-27.9 223.18-27.9L223.18-27.9ZM253.53 0.45Q249.68 0.45 246.55-1.3 243.43-3.05 241.65-6.28 239.88-9.5 239.88-13.75L239.88-13.75Q239.88-17.95 241.7-21.18 243.53-24.4 246.68-26.13 249.83-27.85 253.73-27.85L253.73-27.85Q257.63-27.85 260.78-26.13 263.93-24.4 265.75-21.2 267.58-18 267.58-13.75L267.58-13.75Q267.58-9.5 265.7-6.28 263.83-3.05 260.63-1.3 257.43 0.45 253.53 0.45L253.53 0.45ZM253.53-3.55Q255.98-3.55 258.13-4.7 260.28-5.85 261.6-8.15 262.93-10.45 262.93-13.75L262.93-13.75Q262.93-17.05 261.63-19.35 260.33-21.65 258.23-22.78 256.13-23.9 253.68-23.9L253.68-23.9Q251.18-23.9 249.1-22.78 247.03-21.65 245.78-19.35 244.53-17.05 244.53-13.75L244.53-13.75Q244.53-10.4 245.75-8.1 246.98-5.8 249.03-4.67 251.08-3.55 253.53-3.55L253.53-3.55ZM286.93-27.9Q291.93-27.9 295.03-24.88 298.13-21.85 298.13-16.15L298.13-16.15 298.13 0 293.63 0 293.63-15.5Q293.63-19.6 291.58-21.78 289.53-23.95 285.98-23.95L285.98-23.95Q282.38-23.95 280.25-21.7 278.13-19.45 278.13-15.15L278.13-15.15 278.13 0 273.58 0 273.58-27.4 278.13-27.4 278.13-23.5Q279.48-25.6 281.8-26.75 284.13-27.9 286.93-27.9L286.93-27.9Z" opacity="1" transform="matrix(1,0,0,1,0,0)" fill="#ffffff" class="undefined-text-0" data-fill-palette-color="primary" id="text-0"></path></svg></g></svg></g></svg></g></svg></g><g transform="matrix(1,0,0,1,103.49318461150223,0)"><svg viewBox="0 0 188.53363077699552 188.5430477837838" height="188.5430477837838" width="188.53363077699552"><g><svg xmlns="http://www.w3.org/2000/svg" xmlns:xlink="http://www.w3.org/1999/xlink" version="1.1" x="0" y="0" viewBox="0.052000004798173904 0.05000000447034836 99.89500427246094 99.89999389648438" enable-background="new 0 0 100 100" xml:space="preserve" height="188.5430477837838" width="188.53363077699552" class="icon-icon-0" data-fill-palette-color="accent" id="icon-0"><path d="M83.363 54.182c-0.773 6.152-3.205 11.777-6.852 16.422l11.77 11.77c6.551-7.74 10.781-17.488 11.666-28.191H83.363z" fill="#ffffff" data-fill-palette-color="accent"></path><path d="M54.18 83.186v16.764c10.707-0.885 20.451-5.115 28.191-11.666L70.574 76.482C65.92 80.066 60.311 82.459 54.18 83.186z" fill="#ffffff" data-fill-palette-color="accent"></path><path d="M29.606 76.303l-11.98 11.98c7.739 6.551 17.487 10.781 28.194 11.666v-16.83C39.75 82.32 34.198 79.906 29.606 76.303z" fill="#ffffff" data-fill-palette-color="accent"></path><path d="M17.058 54.182H0.052c0.882 10.703 5.111 20.451 11.662 28.191l12.01-12.014C20.185 65.764 17.813 60.227 17.058 54.182z" fill="#ffffff" data-fill-palette-color="accent"></path><path d="M23.728 29.637L11.714 17.627c-6.551 7.74-10.78 17.487-11.662 28.195h17.006C17.813 39.772 20.185 34.237 23.728 29.637z" fill="#ffffff" data-fill-palette-color="accent"></path><path d="M45.82 16.88V0.05C35.113 0.936 25.369 5.165 17.625 11.717l11.98 11.98C34.198 20.093 39.75 17.681 45.82 16.88z" fill="#ffffff" data-fill-palette-color="accent"></path><path d="M85.727 36.192l-3.662-3.666 14.65-14.65c4.049-4.049 4.049-10.609 0-14.654-4.045-4.045-10.605-4.045-14.65 0L67.41 17.876l-3.662-3.666c-2.025-2.021-5.307-2.021-7.326 0l0 0c-2.025 2.024-2.025 5.302 0 7.327l3.66 3.666L41.767 43.52c-2.021 2.021-3.723 5.98-3.8 8.841l-0.065 2.404 0.861 6.408 6.409 0.865 2.408-0.064c2.857-0.078 6.817-1.779 8.843-3.805l18.314-18.316 3.662 3.662c2.025 2.025 5.303 2.025 7.328 0l0 0C87.75 41.495 87.75 38.213 85.727 36.192zM52.756 54.508c-1.09 1.09-3.772 2.246-5.315 2.287l-0.18 0.004-4.123-4.119 0.004-0.18c0.045-1.543 1.196-4.229 2.29-5.319l18.316-18.316 7.324 7.327L52.756 54.508z" fill="#ffffff" data-fill-palette-color="accent"></path></svg></g></svg></g><g></g></svg></g><defs></defs></svg><rect width="358.32423983160766" height="247.2" fill="none" stroke="none" visibility="hidden"></rect></g></svg></g></svg>